<?xml version="1.0" standalone="no"?>
<!DOCTYPE svg PUBLIC "-//W3C//DTD SVG 20010904//EN"
 "http://www.w3.org/TR/2001/REC-SVG-20010904/DTD/svg10.dtd">
<svg version="1.0" xmlns="http://www.w3.org/2000/svg"
 width="1280.000000pt" height="1273.000000pt" viewBox="0 0 1280.000000 1273.000000"
 preserveAspectRatio="xMidYMid meet">
<metadata>
Created by potrace 1.16, written by Peter Selinger 2001-2019
</metadata>
<g transform="translate(0.000000,1273.000000) scale(0.100000,-0.100000)"
fill="#000000" stroke="none">
<path d="M6827 12715 c-553 -48 -1099 -172 -1605 -364 -956 -364 -1808 -999
-2407 -1796 -491 -654 -805 -1404 -920 -2195 -14 -96 -25 -191 -25 -211 0 -33
-5 -39 -100 -103 -221 -152 -494 -387 -681 -589 -598 -645 -949 -1381 -1066
-2237 -26 -194 -26 -765 0 -960 86 -635 301 -1202 653 -1717 l83 -122 -365
-902 c-200 -496 -371 -925 -379 -952 -8 -28 -15 -89 -15 -137 0 -150 45 -258
151 -362 l69 -68 280 0 279 0 1013 446 1012 446 176 -56 c495 -159 975 -236
1470 -236 1571 0 3000 727 3822 1945 55 83 107 155 115 161 8 7 35 15 61 19
163 23 560 130 816 219 l154 53 1313 -580 c723 -318 1350 -592 1394 -608 66
-24 96 -29 171 -29 151 0 259 43 360 144 100 100 144 209 144 356 0 48 -7 109
-15 137 -8 28 -256 646 -550 1374 -390 966 -545 1339 -573 1379 -51 73 -139
143 -221 176 -79 32 -215 43 -303 25 -170 -36 -315 -170 -369 -340 -23 -74
-28 -211 -10 -277 6 -21 143 -367 306 -768 162 -401 293 -731 291 -733 -1 -2
-29 9 -62 23 -758 338 -1703 749 -1749 761 -42 11 -87 14 -150 11 -82 -5 -106
-12 -270 -76 -453 -177 -851 -272 -1345 -324 -166 -17 -744 -17 -910 0 -792
83 -1479 320 -2103 728 -925 605 -1596 1543 -1825 2554 -66 289 -76 392 -77
755 0 356 12 480 71 755 359 1673 1841 2970 3694 3234 255 36 414 47 695 47
520 0 970 -67 1454 -217 1263 -392 2303 -1322 2749 -2456 123 -314 186 -551
239 -913 25 -170 25 -723 0 -907 -32 -240 -18 -352 62 -474 96 -148 240 -224
421 -224 248 0 445 161 494 405 39 193 51 363 51 745 0 402 -8 501 -61 815
-228 1325 -1033 2515 -2239 3310 -751 495 -1610 796 -2570 901 -208 22 -880
28 -1098 9z m-4892 -5922 c15 -102 99 -411 160 -590 202 -594 500 -1119 925
-1633 127 -154 485 -513 640 -641 890 -740 1936 -1172 3104 -1284 88 -8 184
-15 214 -15 l55 0 -68 -62 c-486 -446 -1087 -750 -1745 -882 -276 -56 -431
-70 -755 -70 -226 0 -332 4 -430 17 -365 48 -631 116 -958 243 -204 79 -301
90 -432 47 -27 -9 -308 -130 -624 -269 -316 -140 -576 -252 -578 -251 -1 2 82
212 185 468 104 255 194 485 200 511 15 57 15 187 1 247 -17 77 -56 143 -154
266 -350 439 -557 902 -640 1435 -26 162 -32 560 -11 730 68 555 284 1067 638
1511 95 120 247 281 258 274 4 -3 11 -26 15 -52z"/>
<path d="M4926 9194 c-167 -40 -312 -179 -360 -343 -25 -85 -21 -230 8 -312
41 -118 128 -221 235 -278 122 -65 -45 -61 2491 -61 2536 0 2369 -4 2491 61
109 58 203 172 239 288 25 80 27 224 4 302 -49 167 -194 303 -365 344 -94 22
-4651 21 -4743 -1z"/>
<path d="M4926 7194 c-167 -40 -312 -179 -360 -343 -25 -84 -21 -230 7 -311
59 -165 191 -285 358 -325 56 -13 267 -15 1619 -15 1710 0 1621 -3 1741 61
109 58 203 172 239 288 25 80 27 224 4 302 -49 167 -194 303 -365 344 -93 22
-3152 21 -3243 -1z"/>
</g>
</svg>
