<?xml version="1.0" standalone="no"?>
<!DOCTYPE svg PUBLIC "-//W3C//DTD SVG 20010904//EN"
 "http://www.w3.org/TR/2001/REC-SVG-20010904/DTD/svg10.dtd">
<svg version="1.0" xmlns="http://www.w3.org/2000/svg"
 width="1038.000000pt" height="1279.000000pt" viewBox="0 0 1038.000000 1279.000000"
 preserveAspectRatio="xMidYMid meet">
<metadata>
Created by potrace 1.16, written by Peter Selinger 2001-2019
</metadata>
<g transform="translate(0.000000,1279.000000) scale(0.100000,-0.100000)"
fill="#000000" stroke="none">
<path d="M1820 12774 c-793 -115 -1450 -704 -1650 -1477 -65 -253 -60 123 -60
-4907 0 -4091 2 -4581 16 -4681 90 -646 498 -1216 1080 -1508 190 -95 403
-164 589 -191 58 -8 771 -10 2611 -8 l2531 3 77 40 c72 38 153 117 1586 1543
830 827 1530 1531 1555 1565 76 100 105 187 105 313 0 216 -127 397 -336 476
l-59 23 -1005 0 c-994 0 -1006 0 -1127 -22 -763 -139 -1338 -739 -1438 -1500
-12 -91 -15 -245 -15 -777 l0 -663 -2074 -6 c-1180 -3 -2118 -2 -2176 3 -359
32 -668 247 -821 574 -52 112 -78 211 -89 346 -13 156 -13 8784 0 8940 21 251
115 456 289 631 177 176 380 268 641 290 83 7 1159 9 3230 7 3394 -4 3128 1
3300 -58 327 -113 580 -402 651 -744 18 -88 19 -181 19 -2566 0 -1679 4 -2496
11 -2540 44 -277 324 -467 601 -409 132 28 275 133 336 247 67 125 62 -81 62
2694 0 2746 3 2617 -56 2858 -144 585 -546 1076 -1094 1333 -138 65 -231 98
-365 131 -240 60 -14 56 -3571 55 -2715 -1 -3275 -3 -3354 -15z m6095 -10434
l-620 -620 -3 277 c-3 305 3 365 48 482 74 190 229 348 418 424 54 22 85 31
187 51 11 2 148 4 305 5 l285 1 -620 -620z"/>
<path d="M4960 10884 c-229 -42 -351 -79 -492 -149 -174 -87 -298 -177 -431
-311 -392 -398 -545 -963 -407 -1504 40 -158 128 -355 212 -478 16 -23 28 -46
26 -51 -2 -5 -41 -34 -88 -66 -190 -128 -399 -319 -536 -489 -334 -413 -556
-1002 -505 -1336 29 -189 106 -337 245 -475 102 -101 179 -148 321 -198 l90
-32 1765 0 1765 0 94 33 c124 43 218 99 308 185 180 172 273 405 260 652 -11
187 -93 456 -217 710 -185 378 -476 711 -830 950 -47 32 -86 61 -88 66 -2 5
10 28 26 51 161 235 261 568 262 870 1 673 -437 1286 -1069 1498 -176 59 -257
72 -481 75 -113 2 -216 1 -230 -1z m344 -1020 c97 -25 174 -71 256 -154 52
-52 85 -96 108 -144 110 -226 69 -468 -108 -646 -117 -118 -242 -172 -400
-172 -158 0 -283 54 -400 172 -177 178 -218 420 -108 646 40 84 157 206 238
249 119 63 283 83 414 49z m101 -2151 c203 -31 425 -123 602 -249 118 -84 282
-253 361 -372 58 -87 131 -227 147 -279 l6 -23 -1361 0 -1361 0 7 23 c16 55
89 193 146 279 71 107 231 276 330 350 329 243 710 336 1123 271z"/>
<path d="M2910 4840 c-406 -5 -427 -6 -478 -27 -206 -84 -322 -255 -322 -474
0 -226 136 -414 349 -479 62 -20 101 -20 1635 -20 1417 0 1578 2 1627 16 81
24 140 57 202 114 288 264 183 731 -193 856 -52 18 -119 19 -1225 19 -643 1
-1361 -2 -1595 -5z"/>
<path d="M2486 3004 c-167 -40 -312 -179 -360 -343 -25 -85 -21 -230 8 -312
58 -164 192 -285 360 -324 58 -14 216 -15 1294 -13 l1227 3 59 23 c208 79 336
261 336 476 0 239 -148 431 -377 491 -83 22 -2457 21 -2547 -1z"/>
</g>
</svg>
