<?xml version="1.0" standalone="no"?>
<!DOCTYPE svg PUBLIC "-//W3C//DTD SVG 20010904//EN"
 "http://www.w3.org/TR/2001/REC-SVG-20010904/DTD/svg10.dtd">
<svg version="1.0" xmlns="http://www.w3.org/2000/svg"
 width="910.000000pt" height="1280.000000pt" viewBox="0 0 910.000000 1280.000000"
 preserveAspectRatio="xMidYMid meet">
<metadata>
Created by potrace 1.16, written by Peter Selinger 2001-2019
</metadata>
<g transform="translate(0.000000,1280.000000) scale(0.100000,-0.100000)"
fill="#000000" stroke="none">
<path d="M1795 12784 c-917 -140 -1606 -862 -1705 -1786 -7 -65 -10 -1570 -10
-4605 1 -4844 -2 -4600 50 -4838 62 -281 213 -591 401 -822 295 -360 691 -598
1164 -700 l130 -28 2675 0 c2874 0 2706 -3 2921 51 661 164 1198 661 1412
1305 92 274 130 594 92 758 -41 171 -177 316 -344 365 -71 21 -221 21 -292 0
-212 -62 -358 -264 -359 -495 0 -196 -81 -428 -204 -587 -178 -231 -426 -366
-720 -392 -150 -13 -4842 -13 -4992 0 -240 21 -444 111 -607 269 -126 120
-211 251 -262 402 -54 157 -55 177 -55 1039 l0 797 846 1044 c465 574 854
1052 863 1062 17 17 31 3 338 -335 176 -194 341 -372 366 -395 148 -137 389
-163 577 -62 31 16 84 58 117 92 33 34 558 666 1167 1405 609 738 1111 1342
1116 1342 5 0 333 -386 729 -857 l721 -858 0 -742 c0 -503 4 -759 11 -795 28
-132 133 -275 247 -336 155 -83 339 -83 494 0 114 61 219 204 247 336 15 72
16 6439 1 6580 -39 365 -176 718 -386 997 -325 434 -792 712 -1325 789 -94 14
-407 16 -2720 15 -2165 -1 -2629 -3 -2704 -15z m5211 -994 c240 -21 444 -111
607 -269 171 -164 275 -362 307 -586 8 -58 10 -547 8 -1740 l-3 -1659 -550
654 c-599 712 -599 713 -742 761 -94 32 -222 32 -316 0 -149 -50 -83 24 -1337
-1497 -633 -766 -1154 -1396 -1159 -1398 -4 -3 -149 151 -322 342 -365 403
-383 421 -452 461 -113 64 -276 83 -398 47 -62 -18 -159 -73 -202 -114 -16
-15 -326 -394 -690 -844 l-662 -816 -3 2861 c-2 2084 0 2884 8 2942 65 456
441 814 899 855 131 11 4875 12 5007 0z"/>
<path d="M2951 9784 c-173 -46 -323 -206 -360 -382 -72 -344 226 -659 570
-603 409 65 571 560 280 852 -71 72 -138 111 -228 134 -71 19 -191 18 -262 -1z"/>
<path d="M4005 2770 c-333 -51 -519 -409 -373 -718 59 -126 187 -231 323 -267
88 -22 1172 -22 1260 0 215 56 375 263 375 484 0 249 -185 466 -426 501 -80
11 -1083 11 -1159 0z"/>
</g>
</svg>
